<svg xmlns="http://www.w3.org/2000/svg" xmlns:xlink="http://www.w3.org/1999/xlink" viewBox="0 0 10 10" height="10mm" width="10mm"><defs><linearGradient xlink:href="#a" gradientUnits="userSpaceOnUse" gradientTransform="scale(1.57482) rotate(-90 18 6)" x2="24" id="b"/><linearGradient id="a"><stop offset="0" stop-color="#d7687d"/><stop offset="1" stop-color="#b21402"/></linearGradient></defs><path style="fill:url(#b);stroke-width:3.77951" d="M18.898 0C8.466 0 0 8.466 0 18.898c0 10.431 8.466 18.897 18.898 18.897 10.431 0 18.897-8.466 18.897-18.897C37.795 8.466 29.33 0 18.898 0" transform="scale(.26458)"/><path style="fill:#eb3941;stroke-width:3.77951" d="M1.36 18.898c0 9.675 7.862 17.537 17.538 17.537 9.675 0 17.537-7.862 17.537-17.537 0-9.676-7.862-17.537-17.537-17.537C9.222 1.36 1.36 9.222 1.36 18.898" transform="scale(.26458)"/><path style="stroke:#fff;stroke-width:3.77951" d="m11.339 11.339 15.118 15.118M26.457 11.339 11.339 26.457" transform="scale(.26458)"/></svg>