<svg width="18" height="18" fill="none" xmlns="http://www.w3.org/2000/svg"><path fill-rule="evenodd" clip-rule="evenodd" d="M13 14H5V4h8v10Zm1 0a1 1 0 0 1-1 1H5a1 1 0 0 1-1-1V4a1 1 0 0 1 1-1h8a1 1 0 0 1 1 1v10Zm-3.257-7.887c.13-.13.3-.196.47-.196.174 0 .344.066.474.2l.45.45c.26.26.26.683 0 .943L9.54 10.107a.664.664 0 0 1-.94 0l-.453-.454a.668.668 0 0 1 0-.943l2.596-2.597ZM7.333 9.75c-.553 0-1 .447-1 1 0 .437-.386.667-.666.667.306.406.83.666 1.333.666.737 0 1.333-.596 1.333-1.333 0-.553-.446-1-1-1Z" fill="#AE52FF"/></svg>