<svg width="16" height="16" fill="none" xmlns="http://www.w3.org/2000/svg"><g clip-path="url(#a)" fill="#000"><path d="M5.342 8.548 2.424 9.823c-.474.207-.474 1.036 0 1.243l5.398 2.358c.115.05.24.05.356 0l5.398-2.358c.475-.207.475-1.036 0-1.243l-2.918-1.275-1.602.7 2.74 1.197L8 12.102l-3.796-1.659 2.74-1.196-1.602-.7Z"/><path fill-rule="evenodd" clip-rule="evenodd" d="M4.204 5.15 8 6.808l3.796-1.658L8 3.492 4.204 5.15Zm-1.78-.622c-.474.207-.474 1.037 0 1.244l5.398 2.357c.115.05.24.05.356 0l5.398-2.357c.475-.207.475-1.037 0-1.244L8.178 2.171a.439.439 0 0 0-.356 0L2.424 4.528Z"/></g><defs><clipPath id="a"><rect width="16" height="16" rx="2" fill="#fff"/></clipPath></defs></svg>