<svg width="16" height="16" fill="none" xmlns="http://www.w3.org/2000/svg"><path d="M7.333 14.667c-.366 0-.68-.13-.941-.392A1.284 1.284 0 0 1 6 13.333v-2.666H4c-.367 0-.68-.131-.941-.392a1.282 1.282 0 0 1-.392-.942V4.667c0-.734.26-1.361.783-1.884A2.568 2.568 0 0 1 5.333 2h8v7.333c0 .367-.13.68-.391.942a1.284 1.284 0 0 1-.942.392h-2v2.666c0 .367-.13.681-.391.942-.262.261-.576.392-.942.392H7.333ZM4 6.667h8V3.333h-.667V6H10V3.333h-.667v1.334H8V3.333H5.333c-.366 0-.68.131-.941.392C4.131 3.986 4 4.3 4 4.667v2Zm0 2.666h8V8H4v1.333ZM4 8v1.333V8Z" fill="#000"/></svg>