<svg width="16" height="16" fill="none" xmlns="http://www.w3.org/2000/svg"><path d="M11.333 3.333H10V2h1.333v1.333ZM12.667 6H14V4.667h-1.333V6Zm0 2.667H14V7.333h-1.333v1.334ZM7.333 14h1.334v-1.333H7.333V14ZM4.667 3.333H6V2H4.667v1.333Zm-2.667 8h1.333V10H2v1.333ZM3.333 14v-1.333H2C2 13.4 2.6 14 3.333 14Zm9.334-12v1.333H14C14 2.6 13.4 2 12.667 2ZM7.333 3.333h1.334V2H7.333v1.333ZM2 6h1.333V4.667H2V6Zm2.667 8H6v-1.333H4.667V14ZM2 8.667h1.333V7.333H2v1.334Zm0-5.334h1.333V2C2.6 2 2 2.6 2 3.333ZM8.001 11.333H6.668V6.667h4.667V8H8.94l3.727 4-.94.94-3.727-4v2.393Z" fill="#000"/></svg>