<svg xmlns="http://www.w3.org/2000/svg" viewBox="203.28 149.413 16 16" width="16" height="16"><defs><path id="a" d="M198.898 152.875h8.593v8.577h-8.593z"/></defs><g fill="none"><path style="fill:#000;fill-opacity:1" d="M4.2.678c-1.12 0-1.68-.001-2.108.217a2 2 0 0 0-.873.875C1 2.197 1 2.756 1 3.877v11.195c0 .223.27.335.428.178L4 12.676h7.8c1.12 0 1.68 0 2.108-.217a2 2 0 0 0 .873-.873c.218-.428.219-.99.219-2.11V3.878c0-1.12 0-1.68-.219-2.107a2 2 0 0 0-.873-.875c-.428-.218-.987-.217-2.107-.217zm.45 2.972h6.4v4h-3.8v-1.3h2.5v-1.4h-5.1zm2.6 5.347h1.4v1.287h-1.4z" transform="translate(203.28 149.413)"/><path mask="url(#path-4-outside-2)" d="M9 4.5h-.5V5c.668.334.333-.333.5-.5Zm2 .5h.5v-.5H11ZM9 9.5h-.5v.5H9Zm2 0v.5h.5v-.5ZM9 11v-.5h-.5v.5Zm2 0h.5v-.5H11Zm-2 2h-.5v.5H9Zm2 0v.5h.5V13ZM9 5.5h2v-1H9Zm.5 4C9.16 7.836 10.65 5 8.5 5v4.5ZM11 9H9v1h2zm-.5-4v4.5h1V5ZM9 11.5h2v-1H9Zm.5 1.5v-2h-1v2zm1.5-.5H9v1h2zm-.5-1.5v2h1v-2z" transform="translate(201.28 147.09)"/></g></svg>