<svg xmlns="http://www.w3.org/2000/svg" viewBox="203.28 149.413 16 16" width="16" height="16"><path style="fill:#000;fill-opacity:1" d="M4.2.678c-1.12 0-1.68-.001-2.108.217a2 2 0 0 0-.873.875C1 2.197 1 2.756 1 3.877v5.6a104.578 104.578 0 0 0 0 .45v5.145c0 .223.27.335.428.178L4 12.676h7.8c1.12 0 1.68 0 2.108-.217a2 2 0 0 0 .873-.873c.218-.428.219-.99.219-2.11V3.878c0-1.12 0-1.68-.219-2.107a2 2 0 0 0-.873-.875c-.428-.218-.987-.217-2.107-.217H4.199zm-.14 3.547h8.8v1.28h-8.8v-1.28zm0 3.453H9.5v1.279H4.06v-1.28z" transform="translate(203.28 149.413)"/></svg>