<?xml version="1.0" encoding="iso-8859-1"?>
<!-- Uploaded to: SVG Repo, www.svgrepo.com, Generator: SVG Repo Mixer Tools -->
<!DOCTYPE svg PUBLIC "-//W3C//DTD SVG 1.1//EN" "http://www.w3.org/Graphics/SVG/1.1/DTD/svg11.dtd">
<svg fill="#000000" height="800px" width="800px" version="1.1" id="Capa_1" xmlns="http://www.w3.org/2000/svg" xmlns:xlink="http://www.w3.org/1999/xlink"
	 viewBox="0 0 44 44" xml:space="preserve">
<g>
	<circle cx="13" cy="15" r="3"/>
	<path d="M20,15c0-3.859-3.14-7-7-7s-7,3.141-7,7s3.14,7,7,7S20,18.859,20,15z M8,15c0-2.757,2.243-5,5-5s5,2.243,5,5s-2.243,5-5,5
		S8,17.757,8,15z"/>
	<circle cx="31" cy="15" r="3"/>
	<path d="M31,8c-3.86,0-7,3.141-7,7s3.14,7,7,7s7-3.141,7-7S34.86,8,31,8z M31,20c-2.757,0-5-2.243-5-5s2.243-5,5-5s5,2.243,5,5
		S33.757,20,31,20z"/>
	<path d="M22,0C9.869,0,0,9.869,0,22s9.869,22,22,22s22-9.869,22-22S34.131,0,22,0z M22,42C10.972,42,2,33.028,2,22S10.972,2,22,2
		s20,8.972,20,20S33.028,42,22,42z"/>
	<path d="M32.174,25.848c-1.185-1.859-3.665-2.408-5.523-1.223l-3.751,2.392l-3.751-2.392c-1.86-1.186-4.338-0.637-5.523,1.222
		c-1.186,1.859-0.638,4.337,1.222,5.524l0.613,0.39l-0.613,0.392c-1.859,1.187-2.407,3.664-1.222,5.522
		c1.186,1.86,3.664,2.409,5.523,1.223l3.751-2.392l3.751,2.392c0.665,0.424,1.409,0.626,2.144,0.626
		c1.322,0,2.618-0.653,3.379-1.848c1.186-1.859,0.638-4.337-1.222-5.523h0l-0.613-0.392l0.613-0.391
		C32.812,30.184,33.36,27.706,32.174,25.848z M29.877,29.684l-1.936,1.233c-0.288,0.184-0.462,0.502-0.462,0.844
		s0.174,0.659,0.462,0.843l1.935,1.234c0.93,0.594,1.205,1.833,0.611,2.763c-0.593,0.929-1.832,1.204-2.762,0.611l-4.289-2.735
		c-0.164-0.104-0.351-0.157-0.538-0.157s-0.374,0.053-0.538,0.157l-4.289,2.735c-0.931,0.59-2.168,0.317-2.762-0.612
		c-0.593-0.929-0.319-2.168,0.611-2.762l1.936-1.234c0.288-0.184,0.462-0.501,0.462-0.843s-0.174-0.66-0.462-0.844l-1.935-1.232
		c-0.93-0.594-1.205-1.833-0.611-2.763c0.593-0.928,1.831-1.205,2.762-0.611l4.289,2.735c0.328,0.209,0.747,0.209,1.075,0
		l4.289-2.735c0.93-0.591,2.169-0.318,2.762,0.612C31.081,27.852,30.807,29.091,29.877,29.684z"/>
</g>
</svg>