<svg width="20" height="20" viewBox="0 0 20 20" fill="none" xmlns="http://www.w3.org/2000/svg">
<path d="M9.68751 16.25C8.24943 16.2505 6.86007 15.729 5.77761 14.7822C4.69515 13.8354 3.99321 12.5279 3.80225 11.1026C3.61129 9.67723 3.94429 8.23103 4.73936 7.03273C5.53443 5.83443 6.73751 4.96553 8.12501 4.5875V3.29688C6.86813 3.57681 5.70954 4.18925 4.77036 5.07019C3.83119 5.95112 3.14591 7.06818 2.78619 8.30458C2.42647 9.54099 2.40551 10.8513 2.7255 12.0986C3.04549 13.3459 3.69468 14.4843 4.6052 15.3948C5.51572 16.3053 6.65413 16.9545 7.90141 17.2745C9.14868 17.5945 10.459 17.5735 11.6954 17.2138C12.9318 16.8541 14.0489 16.1688 14.9298 15.2296C15.8108 14.2905 16.4232 13.1319 16.7031 11.875H15.4125C15.0666 13.1292 14.3198 14.2357 13.286 15.0256C12.2523 15.8156 10.9885 16.2456 9.68751 16.25Z" fill="#F6821F"/>
<path d="M10 1.875L9.37501 2.5V10L10 10.625H17.5L18.125 10C18.1226 7.84585 17.2658 5.78062 15.7426 4.25741C14.2194 2.73419 12.1542 1.8774 10 1.875ZM10.625 9.375V3.15313C12.2251 3.30143 13.7229 4.00459 14.8592 5.14085C15.9954 6.27711 16.6986 7.77494 16.8469 9.375H10.625Z" fill="#F6821F"/>
</svg>
