<svg width="16" height="16" viewBox="0 0 16 16" fill="none" xmlns="http://www.w3.org/2000/svg">
<path fill-rule="evenodd" clip-rule="evenodd" d="M8.464 1.447L14.948 5.09L14.95 5.595L14.953 5.597V10.593L14.459 11.405L8.728 14.682V14.707H7.288V14.691L1.522 11.393L1.047 10.593V5.597L1.049 5.596L1.053 5.089L7.59 1.447H8.465H8.464ZM2.32 5.513L7.101 8.25L7.999 8.757L9.021 8.18L13.681 5.515L7.999 2.31L2.319 5.514L2.32 5.513ZM10.41 8.498L8.483 9.6V13.71L13.987 10.562V6.458L10.41 8.498ZM2.013 6.466L7.517 9.646V13.71L2.013 10.562V6.466ZM6.865 4.222C6.865 4.564 7.329 4.842 7.902 4.842C8.475 4.842 8.939 4.564 8.939 4.222V3.813C8.939 3.471 8.475 3.193 7.902 3.193C7.329 3.193 6.865 3.471 6.865 3.813V4.222ZM6.865 6.916C6.865 7.259 7.329 7.537 7.902 7.537C8.475 7.537 8.939 7.259 8.939 6.917V6.508C8.939 6.165 8.475 5.888 7.902 5.888C7.329 5.888 6.865 6.165 6.865 6.508V6.916ZM9.462 5.463V5.055C9.462 4.712 9.926 4.434 10.499 4.434C11.072 4.434 11.536 4.712 11.536 5.054V5.463C11.536 5.806 11.072 6.083 10.499 6.083C9.926 6.083 9.462 5.806 9.462 5.463ZM4.269 5.463C4.269 5.806 4.733 6.083 5.306 6.083C5.878 6.083 6.343 5.806 6.343 5.463V5.055C6.343 4.712 5.878 4.434 5.306 4.434C4.733 4.434 4.269 4.712 4.269 5.054V5.463Z" fill="#F6821F"/>
<path fill-rule="evenodd" clip-rule="evenodd" d="M8.477 1.4L14.995 5.062L14.997 5.568L15 5.57V10.607L14.492 11.44L8.775 14.71V14.754H7.24V14.719L1.487 11.428L1 10.606V5.57L1.003 5.569L1.006 5.061L7.576 1.4H8.477ZM7.327 14.66H8.68V14.655L14.424 11.37L14.905 10.58V5.624L14.902 5.623L14.901 5.117L8.451 1.494H7.6L1.1 5.117L1.096 5.623L1.094 5.624V10.58L1.556 11.359L7.326 14.659L7.327 14.66ZM7.999 2.255L13.775 5.514L9.045 8.22H9.044L7.999 8.81L7.078 8.29L2.224 5.513L7.999 2.255ZM2.414 5.514L7.124 8.208L7.999 8.702L8.998 8.139L13.585 5.514L8 2.363L2.415 5.513L2.414 5.514ZM7.193 3.414C7.013 3.523 6.912 3.665 6.912 3.814V4.222C6.912 4.37 7.012 4.512 7.192 4.62C7.372 4.727 7.622 4.795 7.902 4.795C8.182 4.795 8.432 4.727 8.611 4.62C8.791 4.512 8.891 4.37 8.891 4.222V3.813C8.891 3.665 8.791 3.523 8.611 3.415C8.39393 3.29502 8.14896 3.23464 7.901 3.24C7.65368 3.23476 7.40939 3.29414 7.193 3.414ZM7.144 3.334C7.341 3.217 7.608 3.146 7.902 3.146C8.195 3.146 8.463 3.216 8.659 3.334C8.854 3.451 8.986 3.619 8.986 3.814V4.222C8.986 4.416 8.854 4.584 8.659 4.701C8.4277 4.82941 8.16651 4.89428 7.902 4.889C7.608 4.889 7.341 4.819 7.144 4.701C6.949 4.584 6.818 4.416 6.818 4.221V3.813C6.818 3.619 6.949 3.451 7.144 3.334ZM4.596 4.656C4.416 4.764 4.316 4.906 4.316 5.055V5.463C4.316 5.611 4.416 5.753 4.596 5.861C4.776 5.969 5.026 6.036 5.306 6.036C5.585 6.036 5.836 5.969 6.015 5.861C6.195 5.754 6.295 5.611 6.295 5.463V5.055C6.295 4.906 6.195 4.764 6.015 4.656C5.79793 4.53602 5.55296 4.47564 5.305 4.481C5.026 4.481 4.775 4.549 4.596 4.656ZM4.548 4.576C4.744 4.458 5.012 4.387 5.306 4.387C5.599 4.387 5.866 4.458 6.063 4.575C6.258 4.692 6.39 4.86 6.39 5.055V5.463C6.39 5.657 6.258 5.825 6.063 5.942C5.8317 6.07041 5.57051 6.13528 5.306 6.13C5.012 6.13 4.744 6.06 4.548 5.942C4.353 5.825 4.222 5.657 4.222 5.462V5.055C4.222 4.86 4.352 4.692 4.548 4.575V4.576ZM9.742 4.576C9.938 4.458 10.206 4.387 10.499 4.387C10.792 4.387 11.06 4.458 11.256 4.575C11.436 4.683 11.561 4.833 11.58 5.008H11.583V5.463C11.583 5.657 11.452 5.825 11.257 5.942C11.0254 6.07054 10.7638 6.13541 10.499 6.13C10.2344 6.13566 9.97316 6.07077 9.742 5.942C9.546 5.825 9.415 5.657 9.415 5.462V5.056C9.415 4.861 9.546 4.693 9.742 4.576ZM11.489 5.055C11.489 4.906 11.389 4.764 11.209 4.656C10.9919 4.53602 10.747 4.47564 10.499 4.481C10.219 4.481 9.969 4.549 9.789 4.656C9.609 4.764 9.509 4.906 9.509 5.054V5.463C9.509 5.611 9.609 5.753 9.789 5.861C9.969 5.969 10.219 6.036 10.499 6.036C10.779 6.036 11.029 5.969 11.209 5.861C11.389 5.754 11.489 5.611 11.489 5.463V5.055ZM7.193 6.11C7.013 6.217 6.912 6.36 6.912 6.508V6.916C6.912 7.065 7.012 7.207 7.192 7.315C7.372 7.422 7.622 7.49 7.902 7.49C8.182 7.49 8.432 7.422 8.611 7.315C8.791 7.207 8.891 7.065 8.891 6.916V6.508C8.891 6.36 8.791 6.218 8.611 6.11C8.39402 5.98967 8.14906 5.92895 7.901 5.934C7.622 5.934 7.371 6.002 7.193 6.11ZM7.144 6.029C7.341 5.912 7.608 5.841 7.902 5.841C8.195 5.841 8.463 5.911 8.659 6.029C8.854 6.146 8.986 6.314 8.986 6.509V6.916C8.986 7.111 8.854 7.279 8.659 7.396C8.4277 7.52441 8.16651 7.58928 7.902 7.584C7.608 7.584 7.341 7.513 7.144 7.396C6.949 7.279 6.818 7.111 6.818 6.916V6.508C6.818 6.314 6.949 6.146 7.144 6.029ZM14.034 6.378V10.589L8.436 13.791V9.572L10.386 8.457L14.034 6.378ZM1.966 6.384L7.564 9.62V13.792L1.966 10.59V6.384ZM10.433 8.538L8.53 9.627V13.629L13.94 10.534V6.54L10.433 8.54V8.538ZM2.06 6.548V10.534L7.47 13.629V9.673L2.06 6.548Z" fill="#F6821F"/>
</svg>
