<svg width="16" height="16" viewBox="0 0 16 16" fill="none" xmlns="http://www.w3.org/2000/svg">
<path fill-rule="evenodd" clip-rule="evenodd" d="M12.1987 7.50348V8.50348H4.94874V11.5035H12.1987V12.5035H11.4212V14.006L10.9212 14.506H1.95874L1.45874 14.006V2.00598L1.95874 1.50598H6.94124L7.29374 1.65098L11.2762 5.65098L11.4212 6.00348V7.50348H12.1987ZM9.72124 5.48848L7.43874 3.19348V5.48848H9.72124ZM10.4212 12.4935H4.43874L3.94124 11.981V7.98098L4.44124 7.48098H10.4212V6.48098H6.93874L6.43874 5.98098V2.48098H2.45874V13.481H10.4212V12.4935Z" fill="#F6821F"/>
<path d="M5.72681 10.8022L6.44617 8.85851L7.384 9.2056L6.66464 11.1493L5.72681 10.8022Z" fill="#F6821F"/>
<path d="M8.69715 8.85848L7.97778 10.8021L8.91561 11.1492L9.63497 9.20558L8.69715 8.85848Z" fill="#F6821F"/>
<path d="M12.4254 9.01261L12.9404 8.49511L14.4479 10.0051L12.9404 11.5126L12.4254 10.9976L13.0529 10.3676H10.8154V9.64011H13.0529L12.4254 9.01261Z" fill="#F6821F"/>
</svg>
