<svg width="20" height="20" viewBox="0 0 20 20" fill="none" xmlns="http://www.w3.org/2000/svg">
<path d="M9.76562 4.95H5.0125V6.2H9.76562V4.95Z" fill="#F6821F"/>
<path d="M18.125 10.1594C18.1237 9.26989 17.8101 8.40911 17.239 7.7272C16.6678 7.04528 15.8754 6.58553 15 6.42813V3.05L14.375 2.425H3.0625L2.4375 3.05V16.7813L3.0625 17.4063H11.1875V18.125L12.2719 18.55L14.3125 16.3438L16.3531 18.55L17.4469 18.125V12.3094C17.8868 11.6786 18.1234 10.9284 18.125 10.1594ZM16.875 10.1594C16.875 10.6631 16.7256 11.1555 16.4458 11.5743C16.1659 11.9932 15.7682 12.3196 15.3028 12.5124C14.8374 12.7052 14.3253 12.7556 13.8313 12.6573C13.3372 12.559 12.8834 12.3165 12.5272 11.9603C12.171 11.6041 11.9285 11.1503 11.8302 10.6562C11.7319 10.1622 11.7824 9.65011 11.9751 9.18473C12.1679 8.71935 12.4943 8.32158 12.9132 8.04173C13.332 7.76187 13.8244 7.6125 14.3281 7.6125C15.0033 7.61333 15.6507 7.88193 16.1281 8.35938C16.6056 8.83683 16.8742 9.48416 16.875 10.1594ZM3.6875 16.1563V3.675H13.75V6.4125C12.9409 6.53562 12.1933 6.9171 11.6188 7.5H5.03125V8.75H10.8C10.6412 9.14858 10.5514 9.57128 10.5344 10H5.03125V11.25H10.6875C10.8009 11.6295 10.9727 11.9891 11.1969 12.3156V16.1563H3.6875ZM14.7781 15L14.3219 14.5063L13.8656 15L12.4469 16.5313V13.4563C13.0175 13.7839 13.6639 13.9563 14.3219 13.9563C14.9798 13.9563 15.6263 13.7839 16.1969 13.4563V16.5281L14.7781 15Z" fill="#F6821F"/>
</svg>
