<svg width="16" height="16" viewBox="0 0 16 16" fill="none" xmlns="http://www.w3.org/2000/svg">
<path fill-rule="evenodd" clip-rule="evenodd" d="M3.25002 1.5L3.75002 1H11.25L11.75 1.5V4.25L11.25 4.75H8.00002V6.86121H10.4016C11.6443 6.86121 12.6516 7.86857 12.6516 9.11121V10.3621C13.4296 10.5802 14 11.2945 14 12.1421C14 13.1629 13.1725 13.9905 12.1517 13.9905C11.1308 13.9905 10.3033 13.1629 10.3033 12.1421C10.3033 11.2945 10.8737 10.5802 11.6516 10.3621V9.11121C11.6516 8.42085 11.092 7.86121 10.4016 7.86121H8.00002V10.3621C8.77795 10.5802 9.34842 11.2945 9.34842 12.1421C9.34842 13.1629 8.52088 13.9905 7.50005 13.9905C6.47922 13.9905 5.65167 13.1629 5.65167 12.1421C5.65167 11.2945 6.22212 10.5802 7.00002 10.3621V7.86121H4.59839C3.90804 7.86121 3.34839 8.42085 3.34839 9.11121V10.3621C4.1263 10.5802 4.69675 11.2945 4.69675 12.1421C4.69675 13.1629 3.8692 13.9905 2.84838 13.9905C1.82755 13.9905 1 13.1629 1 12.1421C1 11.2945 1.57047 10.5802 2.34839 10.3621V9.11121C2.34839 7.86857 3.35575 6.86121 4.59839 6.86121H7.00002V4.75H3.75002L3.25002 4.25V1.5ZM4.25002 2V3.75H10.75V2H4.25002ZM2.84838 11.2937C2.37983 11.2937 2 11.6735 2 12.1421C2 12.6106 2.37983 12.9905 2.84838 12.9905C3.31692 12.9905 3.69675 12.6106 3.69675 12.1421C3.69675 11.6735 3.31692 11.2937 2.84838 11.2937ZM7.50005 11.2937C7.0315 11.2937 6.65167 11.6735 6.65167 12.1421C6.65167 12.6106 7.0315 12.9905 7.50005 12.9905C7.96859 12.9905 8.34842 12.6106 8.34842 12.1421C8.34842 11.6735 7.96859 11.2937 7.50005 11.2937ZM12.1517 11.2937C11.6831 11.2937 11.3033 11.6735 11.3033 12.1421C11.3033 12.6106 11.6831 12.9905 12.1517 12.9905C12.6202 12.9905 13 12.6106 13 12.1421C13 11.6735 12.6202 11.2937 12.1517 11.2937Z" fill="#F6821F"/>
</svg>
