<svg width="16" height="16" viewBox="0 0 16 16" fill="none" xmlns="http://www.w3.org/2000/svg">
<path d="M6.35251 5.75249L5.64751 6.46249L7.29251 8.08999L5.66751 9.73499L6.37751 10.4375L8.00501 8.79249L9.64751 10.4175L10.3525 9.70749L8.70751 8.08249L10.3325 6.43749L9.62251 5.73249L7.99501 7.37749L6.35251 5.75249Z" fill="#F6821F"/>
<path d="M12.8525 3.44499L12.5125 3.39749C11.0644 3.18356 9.72018 2.51977 8.67001 1.49999L8.37251 1.16499H7.62251L7.33251 1.49999C6.285 2.5179 4.94457 3.18156 3.50001 3.39749L3.16001 3.44499L2.73001 3.94499V7.47499C2.71751 12.3625 7.4 14.75 7.59751 14.855L7.77501 14.945H8.22501L8.40251 14.855C8.60001 14.7575 13.2825 12.355 13.2825 7.47499V3.93999L12.8525 3.44499ZM12.2825 7.47499C12.2825 11.5625 8.50001 13.6825 8.00001 13.9375C7.51501 13.6875 3.71751 11.565 3.71751 7.47499V4.37499C5.3275 4.11742 6.82108 3.3763 8.00001 2.24999C9.17856 3.37682 10.6723 4.11803 12.2825 4.37499V7.47499Z" fill="#F6821F"/>
</svg>
