<svg width="16" height="16" viewBox="0 0 16 16" fill="none" xmlns="http://www.w3.org/2000/svg">
<path fill-rule="evenodd" clip-rule="evenodd" d="M13.5498 5.12557C14.0083 6.01087 14.25 6.99629 14.25 8C14.25 9.03403 13.9938 10.0416 13.5164 10.9379C13.6354 11.1599 13.7401 11.3752 13.8289 11.5819C14.0224 12.0324 14.1458 12.4547 14.1698 12.8275C14.1936 13.1979 14.1214 13.5903 13.8352 13.8766C13.4534 14.2583 12.891 14.262 12.3946 14.1545C11.9501 14.0581 11.4374 13.8491 10.8781 13.5479C9.99689 14.005 9.01108 14.25 8 14.25C6.9949 14.25 6.00815 14.0077 5.1219 13.5479C4.56304 13.8488 4.04928 14.0582 3.60528 14.1545C3.21566 14.2389 2.81726 14.2501 2.47957 14.0946C2.1053 13.9222 1.89919 13.5901 1.84283 13.2027C1.79047 12.843 1.86375 12.4358 2.00208 12.0221C2.11337 11.6892 2.2759 11.3253 2.48352 10.9379C2.38913 10.7606 2.30306 10.5784 2.22576 10.3918C1.75271 9.24973 1.62894 7.99307 1.87009 6.78069C1.98533 6.20134 2.18143 5.64453 2.45017 5.12565C2.14578 4.56206 1.93395 4.04406 1.83703 3.59683C1.7526 3.20722 1.74138 2.80882 1.8969 2.47112C2.06927 2.09686 2.40143 1.89074 2.78875 1.83438C3.14853 1.78202 3.55565 1.8553 3.96942 1.99363C4.30578 2.10608 4.67375 2.27085 5.06578 2.48159C5.60162 2.19668 6.17899 1.98978 6.78069 1.87009C7.18417 1.78984 7.59256 1.75 8 1.75C8.81681 1.75001 9.62981 1.91014 10.3918 2.22576C10.5771 2.30254 10.7581 2.38796 10.9342 2.48159C11.1616 2.35933 11.3809 2.25258 11.5903 2.16265C12.0408 1.96915 12.4631 1.84572 12.836 1.82173C13.2064 1.7979 13.5988 1.87005 13.885 2.1563C14.2668 2.53805 14.2704 3.10053 14.1629 3.59685C14.0659 4.04457 13.8545 4.56152 13.5498 5.12557ZM12.3652 5.08326C12.9421 5.94662 13.25 6.96165 13.25 8C13.25 9.39239 12.6969 10.7277 11.7123 11.7123C11.4552 11.9694 11.1741 12.1971 10.8744 12.3933C10.219 11.9955 9.50061 11.4754 8.76442 10.8673C9.12892 10.5383 9.49134 10.1939 9.84685 9.83842C9.89815 9.78712 9.9492 9.73569 10 9.68414V10.5H11V7.75L8.25 7.75L8.25 8.75L9.51402 8.75C9.39111 8.87757 9.2663 9.00476 9.13974 9.13131C8.76464 9.50641 8.38263 9.86763 7.99996 10.2098C7.61858 9.86878 7.23661 9.50772 6.86019 9.1313C5.78821 8.05932 4.82955 6.9309 4.1049 5.89202C3.91876 5.62517 3.75214 5.37003 3.60505 5.12825C3.80205 4.82676 4.0305 4.54488 4.28769 4.28769C5.02192 3.55347 5.95738 3.05345 6.97578 2.85088C7.31471 2.78346 7.65775 2.75 8 2.75C8.64742 2.75 9.29197 2.86977 9.90034 3.10601C9.43748 3.41341 8.95464 3.76837 8.4629 4.16228C8.14205 4.4193 7.82002 4.69082 7.5 4.97377V4H6.5V6.75H9.25V5.75H8.13182C8.45016 5.46767 8.7701 5.19748 9.0881 4.94274C9.74112 4.41964 10.3621 3.98081 10.9241 3.63969C11.4915 4.02019 11.982 4.5097 12.3652 5.08326ZM11.9021 3.1178C12.2791 3.41911 12.6211 3.76396 12.9204 4.14614C13.0525 3.85198 13.1396 3.59727 13.1856 3.38506C13.2733 2.98018 13.1856 2.8711 13.1779 2.8634C13.1737 2.85922 13.1175 2.80569 12.9002 2.81967C12.6854 2.83349 12.381 2.91139 11.9849 3.08148C11.9576 3.09323 11.93 3.10533 11.9021 3.1178ZM4.09785 3.11781C3.93836 3.04643 3.78964 2.98793 3.65236 2.94204C3.30488 2.82587 3.07029 2.80394 2.93276 2.82395C2.86954 2.83315 2.84093 2.84916 2.83071 2.85623C2.82285 2.86166 2.8146 2.86903 2.8052 2.88944C2.78041 2.94326 2.75032 3.08956 2.81435 3.38505C2.86133 3.60185 2.94973 3.85728 3.07953 4.14624C3.23443 3.94845 3.40167 3.7595 3.58058 3.58058C3.74486 3.41631 3.91759 3.26189 4.09785 3.11781ZM3.08095 6.16549C2.9831 6.42786 2.90598 6.69875 2.85088 6.97578C2.64831 7.99418 2.75227 9.04978 3.14963 10.0091C3.54699 10.9684 4.2199 11.7883 5.08326 12.3652C5.09732 12.3746 5.11143 12.3839 5.12558 12.3932C5.37064 12.2445 5.62952 12.0756 5.90047 11.8866C6.33346 11.5846 6.78199 11.2419 7.23552 10.8673C6.87159 10.5388 6.50919 10.1945 6.15308 9.8384C5.04686 8.73218 4.04848 7.55907 3.28472 6.46413C3.21477 6.36384 3.14681 6.26426 3.08095 6.16549ZM6.16272 12.918C6.74738 13.1364 7.36939 13.25 8 13.25C8.63344 13.25 9.25508 13.1355 9.83725 12.918C9.24624 12.5247 8.62575 12.056 7.99997 11.5322C7.48377 11.9642 6.9701 12.3597 6.47257 12.7068C6.36849 12.7794 6.26517 12.8498 6.16272 12.918ZM4.1424 12.9175C3.76298 12.6198 3.42041 12.2801 3.1208 11.9059C3.05189 12.0607 2.9952 12.2054 2.95048 12.3391C2.83432 12.6866 2.81239 12.9212 2.8324 13.0587C2.8416 13.122 2.85761 13.1506 2.86468 13.1608C2.8701 13.1686 2.87747 13.1769 2.89789 13.1863C2.95171 13.2111 3.09801 13.2412 3.39349 13.1771C3.60722 13.1308 3.85848 13.0443 4.1424 12.9175ZM11.8576 12.9175C12.1466 13.0465 12.3972 13.1318 12.6064 13.1771C13.0113 13.2649 13.1204 13.1772 13.1281 13.1695C13.1323 13.1653 13.1858 13.109 13.1718 12.8918C13.158 12.6769 13.0801 12.3725 12.91 11.9765C12.9 11.9532 12.8897 11.9297 12.8792 11.906C12.7362 12.0846 12.5828 12.2561 12.4194 12.4194C12.2414 12.5974 12.0537 12.7636 11.8576 12.9175Z" fill="#F6821F"/>
</svg>
