<svg width="16" height="16" viewBox="0 0 16 16" fill="none" xmlns="http://www.w3.org/2000/svg">
<path d="M5.89374 3.49526C5.97662 3.49531 6.05766 3.47078 6.1266 3.42477C6.19553 3.37876 6.24928 3.31334 6.28103 3.23678C6.31278 3.16022 6.32111 3.07597 6.30497 2.99467C6.28883 2.91338 6.24895 2.8387 6.19036 2.78007C6.13177 2.72145 6.05711 2.68152 5.97583 2.66533C5.89454 2.64914 5.81028 2.65743 5.73371 2.68913C5.65713 2.72084 5.59168 2.77454 5.54562 2.84345C5.49957 2.91236 5.47499 2.99338 5.47499 3.07626C5.47496 3.13127 5.48577 3.18575 5.5068 3.23659C5.52783 3.28742 5.55867 3.33361 5.59755 3.37252C5.63644 3.41144 5.68262 3.4423 5.73344 3.46336C5.78426 3.48442 5.83873 3.49526 5.89374 3.49526Z" fill="#F6821F"/>
<path d="M7.23399 3.49526C7.31687 3.49531 7.39791 3.47078 7.46685 3.42477C7.53578 3.37876 7.58953 3.31334 7.62128 3.23678C7.65303 3.16022 7.66136 3.07597 7.64522 2.99467C7.62908 2.91338 7.5892 2.8387 7.53061 2.78007C7.47202 2.72145 7.39736 2.68152 7.31608 2.66533C7.23479 2.64914 7.15053 2.65743 7.07396 2.68913C6.99738 2.72084 6.93193 2.77454 6.88587 2.84345C6.83982 2.91236 6.81524 2.99338 6.81524 3.07626C6.81521 3.13127 6.82602 3.18575 6.84705 3.23659C6.86808 3.28742 6.89892 3.33361 6.9378 3.37252C6.97669 3.41144 7.02287 3.4423 7.07369 3.46336C7.12451 3.48442 7.17898 3.49526 7.23399 3.49526Z" fill="#F6821F"/>
<path d="M8.57499 3.49526C8.65787 3.49531 8.73891 3.47078 8.80785 3.42477C8.87678 3.37876 8.93053 3.31334 8.96228 3.23678C8.99403 3.16022 9.00236 3.07597 8.98622 2.99467C8.97008 2.91338 8.9302 2.8387 8.87161 2.78007C8.81302 2.72145 8.73836 2.68152 8.65708 2.66533C8.57579 2.64914 8.49153 2.65743 8.41496 2.68913C8.33838 2.72084 8.27293 2.77454 8.22688 2.84345C8.18082 2.91236 8.15624 2.99338 8.15624 3.07626C8.15621 3.13127 8.16702 3.18575 8.18805 3.23659C8.20908 3.28742 8.23992 3.33361 8.2788 3.37252C8.31769 3.41144 8.36387 3.4423 8.41469 3.46336C8.46551 3.48442 8.51998 3.49526 8.57499 3.49526Z" fill="#F6821F"/>
<path d="M14.202 1.48776H4.59399L4.09399 1.98776V4.36526H3.16899L2.66899 4.86526V6.27276H1.75549L1.25549 6.77276V13.9863L1.75549 14.4863H10.4395L10.9395 13.9863V12.5785H11.8542L12.3542 12.0785V10.469H14.202L14.702 9.96901V1.98776L14.202 1.48776ZM13.702 2.48776V3.66551H5.09399V2.48776H13.702ZM4.09399 5.36526V6.33351H3.66899V5.36526H4.09399ZM2.66899 7.27276V8.24126H2.25549V7.27276H2.66899ZM9.93949 13.4863H2.25549V9.24126H2.67024V12.0785L3.17024 12.5785H9.93949V13.4863ZM11.3542 11.5785H3.67024V7.33351H4.09524V9.96901L4.59524 10.469H11.3542V11.5785ZM5.09399 9.46901V4.66551H13.702V9.46901H5.09399Z" fill="#F6821F"/>
</svg>
